<svg xmlns="http://www.w3.org/2000/svg" viewBox="0 0 160 100" fill="none">
  <!-- AWS Clean Transparent Logo -->
  <text x="35" y="52" font-family="-apple-system, BlinkMacSystemFont, 'SF Pro Display', 'Inter', sans-serif" font-weight="900" font-size="34" fill="#FFFFFF" letter-spacing="1">aws</text>
  <!-- Amazon Smile Curve -->
  <path d="M30 65c28 12 68 12 95-3" stroke="#FF9900" stroke-width="4.5" stroke-linecap="round"/>
  <path d="M121 57l6 5-7 4 1-9Z" fill="#FF9900"/>
  <!-- Subtle Cloud Badge Outline -->
  <path d="M128 32c0-5-4-9-9-9-1 0-2 .2-3 .6-2-4-6-6-10-6-5 0-9 3-10 8-1 0-2-.2-3-.2-6 0-10 4-10 10 0 1 .1 1 .3 2-4 1-7 4-7 8 0 5 4 9 9 9h40c5 0 9-4 9-9 0-4-3-7-6-8.4z" fill="none" stroke="rgba(255,255,255,0.15)" stroke-width="2"/>
</svg>
